<svg id="Слой_1" data-name="Слой 1" xmlns="http://www.w3.org/2000/svg" viewBox="0 0 585 460.34"><defs><style>.cls-1{fill:#ff2a3c;}</style></defs><path class="cls-1" d="M640,599.08c-30-2.09-56.08-24.88-65.59-52.16l2.06-20.52,72.87-1a294.66,294.66,0,0,0-6.16-60.12c-.95-4.58-2-9.09-3.18-13.59a.58.58,0,0,0,0-.18,291.7,291.7,0,0,0-27.28-68.3q-1.57-2.82-3.21-5.6a293.07,293.07,0,0,0-34-47q-3-3.42-6.16-6.74c-1.08-1.15-2.17-2.27-3.26-3.4q-8.57-8.75-17.8-16.79a295.67,295.67,0,0,0-46.67-33.17c-.33-.21-.68-.39-1-.6-1.72,1-3.45,2-5.13,3a293.76,293.76,0,0,0-42.57,30.77q-9.24,8-17.8,16.79c-2.5,2.56-4.95,5.19-7.37,7.86q-3.13,3.45-6.16,7a292.67,292.67,0,0,0-29.92,42.22q-1.64,2.78-3.21,5.6a291.7,291.7,0,0,0-27.28,68.3.58.58,0,0,0,0,.18,289.33,289.33,0,0,0-7.28,38.84,295.09,295.09,0,0,0-2.06,34.87h73.9c0,7.14.35,14.2,1,21.16a69.8,69.8,0,0,1-5.11,12.73A74,74,0,0,1,361,599.08l-13.44-.29a73.86,73.86,0,0,1-65.69-73.42H208a143.59,143.59,0,0,0,20.38,73.9,148.13,148.13,0,0,0,119.2,71.61q3,.18,6.16.21c.67,0,1.37,0,2.05,0a150.24,150.24,0,0,0,32.55-3.55q1.57,2.82,3.21,5.6a292.67,292.67,0,0,0,29.92,42.22q3,3.57,6.16,7c2.42,2.67,4.87,5.3,7.37,7.86A218.84,218.84,0,0,0,495.37,695q2.61-2.16,5.13-4.39c-1.74-1.5-3.45-3-5.13-4.66-4.37-4-8.6-8.32-12.6-12.75A218.36,218.36,0,0,1,454.3,634a146.6,146.6,0,0,0,28.9-34.73,144.29,144.29,0,0,0,17.3-44.16c.31,1.5.66,3,1,4.48a143.74,143.74,0,0,0,16.27,39.68A146.6,146.6,0,0,0,546.7,634a218.36,218.36,0,0,1-28.47,39.16,213.15,213.15,0,0,1-16.7,16.5c-.35.33-.68.64-1,.91.33.32.68.61,1,.92A219,219,0,0,0,566,730.26q1.63-1.68,3.26-3.4,3.15-3.33,6.16-6.74a293.07,293.07,0,0,0,34-47q1.63-2.77,3.21-5.6a151.44,151.44,0,0,0,30.5,3.53c.68,0,1.37,0,2.05,0,1.38,0,2.73,0,4.11-.06a148.22,148.22,0,0,0,123.3-71.78A143.79,143.79,0,0,0,793,525.37H719.11a73.83,73.83,0,0,1-69.79,73.77m-211-147.66a219.73,219.73,0,0,1,44.44-73.9c4-4.43,8.23-8.7,12.6-12.75,1.68-1.62,3.39-3.16,5.13-4.66.35.27.68.58,1,.91a213.15,213.15,0,0,1,16.7,16.5,219.73,219.73,0,0,1,44.44,73.9Z" transform="translate(-208 -269.92)"/></svg>