<svg id="Слой_1" data-name="Слой 1" xmlns="http://www.w3.org/2000/svg" viewBox="0 0 997 414.14"><defs><style>.cls-1,.cls-3,.cls-4{fill:#ff2a3c;}.cls-2{fill:#fff;}.cls-3{font-size:310.01px;}.cls-3,.cls-4{font-family:FranklinGothic-Medium, Franklin Gothic Medium;font-weight:500;}.cls-4{font-size:127.47px;}.cls-5{letter-spacing:-0.02em;}</style></defs><circle class="cls-1" cx="182" cy="232.14" r="182"/><path class="cls-2" d="M218.74,592.93c-11.2-12.29-12.94-31.37-6.33-45.92l8.66-7.43L250.63,567a163.26,163.26,0,0,0,20.49-26.41c1.37-2.2,2.67-4.41,3.92-6.66a.19.19,0,0,0,0-.09,161.19,161.19,0,0,0,15.17-37.74c.3-1.16.59-2.32.86-3.47a162.19,162.19,0,0,0,4.31-31.79c.07-1.68.1-3.36.11-5,0-.87,0-1.74,0-2.61q-.07-6.76-.71-13.52a163.22,163.22,0,0,0-6-31.1c-.05-.2-.12-.41-.18-.63-1.07-.26-2.14-.52-3.2-.76a162.23,162.23,0,0,0-28.79-3.94q-6.76-.32-13.54-.08c-2,.07-4,.19-5.95.33-1.71.12-3.43.28-5.14.46a162.06,162.06,0,0,0-28.1,5.47c-1.15.32-2.29.66-3.43,1a161.21,161.21,0,0,0-37,16.91l-.09.06a160.9,160.9,0,0,0-17.75,12.76,163.41,163.41,0,0,0-14.14,13.18l29.58,28.22c-2.73,2.85-5.29,5.81-7.68,8.85a39.68,39.68,0,0,1-6.91,3.14,40.89,40.89,0,0,1-39.4-7.15l-5.27-5.25a40.85,40.85,0,0,1,1.75-54.47L74,398.46a79.51,79.51,0,0,0-20.07,37.36A81.93,81.93,0,0,0,74.3,510c.76.83,1.56,1.64,2.38,2.44l.82.79a83.22,83.22,0,0,0,14.38,11c-.3,1.16-.59,2.31-.86,3.47A162,162,0,0,0,86.88,556c-.11,1.72-.18,3.45-.22,5.16,0,2-.08,4,0,6a121.51,121.51,0,0,0,37.64,8.92c1.25.09,2.49.16,3.73.2-.12-1.26-.22-2.53-.27-3.82-.21-3.29-.27-6.61-.18-9.92A121,121,0,0,1,131.09,536a81,81,0,0,0,24.83-2.87,79.84,79.84,0,0,0,23.79-11.06c-.45.72-.88,1.45-1.3,2.18a79.6,79.6,0,0,0-8.64,22.1,81.06,81.06,0,0,0-1.69,24.94,121,121,0,0,1-26.35,4.8,117.28,117.28,0,0,1-13,.22,6.19,6.19,0,0,1-.76,0c0,.26,0,.51.06.76a121.46,121.46,0,0,0,11,40.14l2.61-.11c1.69-.09,3.36-.2,5-.35a161.93,161.93,0,0,0,31.55-5.79c1.14-.33,2.29-.67,3.43-1A83.76,83.76,0,0,0,192.51,623l.82.79L195,625.3a82,82,0,0,0,76.76,18.36,79.31,79.31,0,0,0,36.38-21.79l-29.57-28.22a41.61,41.61,0,0,1-7.45,6.17,40.91,40.91,0,0,1-48.66-3.29m-28-139.68a121.42,121.42,0,0,1,46-12.6c3.3-.25,6.62-.34,9.91-.29,1.3,0,2.57,0,3.84.09a6,6,0,0,1,.06.76,117.25,117.25,0,0,1,.39,13,121.24,121.24,0,0,1-10.44,46.55Z" transform="translate(-19 -267.95)"/><text class="cls-3" transform="translate(364.25 258.47)">НБМ</text><text class="cls-4" transform="translate(377.57 361.32)"><tspan class="cls-5">B</tspan><tspan x="75.13" y="0">Y ССРММ</tspan></text></svg>